<?xml version="1.0" encoding="utf-8"?>
<!-- Generator: Adobe Illustrator 16.0.0, SVG Export Plug-In . SVG Version: 6.00 Build 0)  -->
<!DOCTYPE svg PUBLIC "-//W3C//DTD SVG 1.1//EN" "http://www.w3.org/Graphics/SVG/1.1/DTD/svg11.dtd">
<svg version="1.1" id="图层_1" xmlns="http://www.w3.org/2000/svg" xmlns:xlink="http://www.w3.org/1999/xlink" x="0px" y="0px"
     width="160px" height="70px" viewBox="0 0 160 70" enable-background="new 0 0 160 70" xml:space="preserve">
<g>
    <polygon fill="#0B57A6" points="32.693,22.625 5.166,48.154 13.329,48.154 32.084,29.484 24.792,48.154 33.126,48.154 
        41.55,22.625    "/>
    <rect x="17.38" y="38.313" fill="#1354A4" width="13.112" height="5.621"/>
    <polygon fill="#39B382" points="40.694,32.275 35.389,32.27 35.392,32.45 34.861,32.452 34.854,32.624 33.263,32.628 
        33.266,32.805 33.091,32.803 33.091,32.981 34.668,32.98 34.668,33.155 41.924,33.155 41.922,32.979 42.1,32.976 42.109,32.447 
        42.279,32.45 42.281,32.272  "/>
    <polygon fill="#39B382" points="35.207,33.335 35.209,33.512 34.506,33.507 34.504,33.688 32.736,33.687 32.736,33.865 
        32.554,33.862 32.554,34.045 34.327,34.044 34.322,34.214 41.754,34.219 41.75,34.043 41.919,34.042 41.932,33.333  "/>
    <polygon fill="#39B382" points="42.984,34.388 42.986,34.564 42.283,34.56 42.281,34.741 40.513,34.74 40.513,34.917 
        40.332,34.915 40.332,35.098 42.104,35.098 42.1,35.268 43.156,35.29 43.156,35.449 50.216,35.44 50.224,34.736 50.394,34.734 
        50.393,34.399   "/>
    <polygon fill="#39B382" points="34.497,35.453 34.499,35.63 33.796,35.625 33.794,35.807 32.025,35.805 32.026,35.98 
        31.843,35.979 31.843,36.162 33.616,36.162 33.612,36.332 37.152,36.338 37.157,35.988 37.324,35.986 37.326,35.452     "/>
    <polygon fill="#39B382" points="34.142,36.506 34.143,36.682 33.44,36.678 33.439,36.859 31.67,36.857 31.67,37.035 31.488,37.032 
        31.488,37.215 33.102,37.215 33.091,37.414 40.689,37.391 40.685,36.875 40.854,36.875 40.853,36.504   "/>
    <polygon fill="#39B382" points="33.789,37.572 33.792,37.75 33.088,37.744 33.087,37.926 31.318,37.924 31.319,38.102 31.136,38.1 
        31.136,38.282 32.91,38.282 32.905,38.473 40.157,38.459 40.154,38.281 40.338,38.282 40.334,37.938 40.511,37.934 40.511,37.575    
        "/>
    <polygon fill="#39B382" points="33.441,38.641 33.44,38.813 32.562,38.814 32.557,38.979 30.967,38.988 30.965,39.17 30.791,39.17 
        30.792,39.348 32.382,39.343 32.375,39.531 39.804,39.518 39.805,39.348 39.981,39.346 39.981,38.816 40.155,38.813 40.156,38.637 
            "/>
    <polygon fill="#39B382" points="33.086,39.684 33.088,39.859 32.386,39.854 32.384,40.035 30.615,40.034 30.616,40.212 
        30.433,40.21 30.433,40.398 32.036,40.398 32.024,40.584 35.741,40.574 35.747,40.225 35.914,40.225 35.916,39.682  "/>
    <polygon fill="#39B382" points="32.739,40.775 32.742,40.953 32.039,40.947 32.037,41.129 30.269,41.127 30.269,41.305 
        30.086,41.303 30.086,41.494 31.689,41.493 31.677,41.678 39.104,41.646 39.101,41.463 39.273,41.463 39.27,40.932 39.447,40.932 
        39.447,40.766   "/>
    <polygon fill="#39B382" points="32.383,41.822 32.386,42 31.514,41.996 31.513,42.176 29.913,42.175 29.913,42.352 29.73,42.352 
        29.73,42.541 31.333,42.541 31.321,42.727 38.748,42.691 38.745,42.512 38.917,42.51 38.914,41.979 39.092,41.979 39.091,41.811     
        "/>
    <polygon fill="#39B382" points="32.031,42.874 32.026,43.059 31.142,43.055 31.14,43.232 29.567,43.232 29.567,43.41 
        29.385,43.408 29.385,43.6 30.967,43.6 30.962,43.77 38.398,43.781 38.4,43.566 38.572,43.566 38.568,43.036 38.746,43.036 
        38.745,42.869   "/>
    <polygon fill="#39B382" points="43.699,32.272 43.702,32.457 43.169,32.452 43.167,32.606 41.923,32.605 41.924,32.778 
        41.741,32.775 41.737,32.983 42.991,32.983 42.991,33.155 50.933,33.154 50.94,32.637 51.116,32.634 51.109,32.272  "/>
    <polygon fill="#39B382" points="43.356,33.32 43.359,33.51 42.828,33.504 42.826,33.664 41.582,33.661 41.582,33.838 
        41.399,33.837 41.399,34.02 42.648,34.02 42.649,34.216 50.589,34.194 50.594,33.678 50.764,33.666 50.752,33.331   "/>
    <polygon fill="#39B382" points="34.854,34.397 34.854,34.569 34.151,34.573 34.146,34.748 32.381,34.753 32.381,34.927 
        32.198,34.928 32.198,35.111 33.972,35.111 33.967,35.281 41.399,35.274 41.407,34.748 41.577,34.747 41.576,34.395     "/>
    <polygon fill="#39B382" points="44.4,35.632 44.4,35.809 42.997,35.809 42.997,35.98 42.813,35.986 42.813,36.158 44.222,36.158 
        44.222,36.336 47.931,36.336 47.931,35.994 48.116,35.986 48.116,35.632   "/>
    <polygon fill="#39B382" points="44.401,36.516 44.403,36.691 44.051,36.691 44.051,36.87 42.634,36.863 42.634,37.048 
        42.457,37.057 42.457,37.227 43.873,37.227 43.873,37.391 47.574,37.391 47.574,37.048 47.752,37.048 47.752,36.514     "/>
    <polygon fill="#39B382" points="47.407,37.576 44.406,37.564 44.406,37.766 43.869,37.755 43.869,37.934 42.1,37.934 42.1,38.111 
        41.92,38.111 41.92,38.292 43.69,38.292 43.69,38.45 47.229,38.45 47.229,38.111 47.407,38.111     "/>
    <polygon fill="#39B382" points="47.06,38.629 43.875,38.641 43.875,38.813 43.334,38.811 43.334,38.986 41.752,38.986 
        41.752,39.166 41.573,39.166 41.573,39.346 43.162,39.35 43.162,39.518 46.875,39.521 46.875,39.166 47.06,39.166   "/>
    <polygon fill="#39B382" points="46.703,39.684 43.518,39.691 43.518,39.866 42.978,39.863 42.978,40.04 41.395,40.04 
        41.395,40.221 41.215,40.221 41.215,40.398 42.805,40.4 42.801,40.584 46.521,40.587 46.521,40.063 46.698,40.057   "/>
    <polygon fill="#39B382" points="46.34,40.758 46.34,41.105 46.173,41.105 46.173,41.643 42.273,41.643 42.273,41.471 
        40.864,41.471 40.864,41.288 41.044,41.288 41.044,41.113 42.46,41.113 42.46,40.939 42.995,40.939 42.988,40.766   "/>
    <polygon fill="#39B382" points="45.987,41.816 45.987,42.165 45.819,42.165 45.819,42.703 41.919,42.703 41.919,42.527 
        40.509,42.527 40.509,42.348 40.691,42.348 40.691,42.173 42.28,42.173 42.28,41.999 42.82,41.999 42.813,41.822    "/>
    <polygon fill="#39B382" points="45.626,42.884 45.626,43.23 45.465,43.23 45.465,43.762 42.273,43.762 42.273,43.587 
        40.156,43.587 40.156,43.417 40.33,43.417 40.33,43.238 41.752,43.238 41.752,43.063 42.28,43.057 42.28,42.884     "/>
    <polygon fill="#39B382" points="56.595,32.27 56.605,32.437 56.407,32.437 56.418,32.967 56.251,32.978 56.261,33.145 
        53.077,33.133 53.077,32.988 51.11,32.978 51.11,32.801 51.287,32.801 51.287,32.634 52.712,32.634 52.712,32.437 53.223,32.437 
        53.223,32.28    "/>
    <polygon fill="#39B382" points="56.244,33.337 52.888,33.337 52.888,33.513 52.53,33.513 52.53,33.682 50.94,33.682 50.94,33.863 
        50.765,33.863 50.765,34.032 52.53,34.039 52.53,34.206 55.889,34.206 55.889,34.045 56.07,34.045 56.07,33.521 56.244,33.513   "/>
    <polygon fill="#39B382" points="55.889,34.395 52.53,34.39 52.53,34.578 52.012,34.578 52.012,34.753 50.597,34.753 50.597,34.921 
        50.414,34.921 50.414,35.096 52.174,35.104 52.174,35.279 55.531,35.279 55.537,35.104 55.705,35.096 55.705,34.571 55.889,34.564 
            "/>
    <polygon fill="#39B382" points="55.537,35.461 52.181,35.468 52.181,35.637 51.649,35.637 51.649,35.805 50.233,35.813 
        50.233,35.986 50.058,35.986 50.058,36.162 51.823,36.162 51.823,36.33 55.18,36.338 55.18,36.162 55.362,36.162 55.362,35.622 
        55.537,35.63    "/>
    <polygon fill="#39B382" points="62.608,32.273 62.608,32.452 62.43,32.452 62.418,33.142 58.901,33.153 58.901,32.975 
        57.13,32.975 57.13,32.808 57.307,32.808 57.307,32.618 58.721,32.618 58.721,32.452 59.257,32.452 59.257,32.273   "/>
    <polygon fill="#39B382" points="58.902,33.342 62.244,33.336 62.25,33.514 62.066,33.514 62.074,34.025 61.896,34.032 
        61.904,34.21 58.554,34.21 58.548,34.045 56.779,34.039 56.779,33.869 56.956,33.869 56.948,33.697 58.372,33.697 58.372,33.521 
        58.902,33.514   "/>
    <polygon fill="#39B382" points="61.906,34.556 61.719,34.573 61.719,35.101 61.55,35.109 61.55,35.271 58.367,35.262 
        58.367,35.101 56.424,35.092 56.424,34.922 56.611,34.922 56.611,34.742 58.019,34.742 58.019,34.564 58.724,34.564 58.724,34.393 
        61.906,34.393   "/>
    <polygon fill="#39B382" points="61.54,35.449 61.54,35.628 61.38,35.628 61.372,36.156 61.176,36.156 61.185,36.336 58.011,36.336 
        58.011,36.164 56.068,36.164 56.068,35.994 56.238,35.994 56.238,35.807 57.833,35.807 57.833,35.637 58.181,35.637 58.181,35.458 
            "/>
    <polygon fill="#39B382" points="61.19,36.521 61.19,36.68 61.032,36.68 61.032,37.227 60.845,37.227 60.845,37.398 51.481,37.387 
        51.481,37.227 49.712,37.211 49.712,37.055 49.87,37.055 49.87,36.867 51.467,36.867 51.467,36.68 52.013,36.68 52.027,36.521   "/>
    <polygon fill="#39B382" points="60.828,37.589 51.452,37.575 51.452,37.738 50.932,37.738 50.932,37.93 49.522,37.93 
        49.522,38.107 49.344,38.107 49.344,38.273 51.274,38.285 51.26,38.465 60.5,38.465 60.5,38.285 60.65,38.285 60.663,37.753 
        60.828,37.753   "/>
    <polygon fill="#39B382" points="60.472,38.628 60.472,38.807 60.294,38.818 60.294,39.34 60.13,39.34 60.13,39.518 50.945,39.518 
        50.932,39.354 48.989,39.354 48.989,39.176 49.167,39.163 49.167,38.997 50.411,38.997 50.398,38.834 51.082,38.834 51.082,38.643 
            "/>
    <polygon fill="#39B382" points="54.118,39.7 54.118,39.88 53.947,39.88 53.938,40.402 53.782,40.396 53.788,40.581 50.407,40.581 
        50.407,40.402 48.632,40.409 48.632,40.229 48.816,40.229 48.816,40.059 50.407,40.053 50.414,39.88 50.757,39.88 50.757,39.7   "/>
    <polygon fill="#39B382" points="53.768,40.768 53.768,40.934 53.589,40.939 53.589,41.455 53.418,41.471 53.418,41.641 
        50.051,41.641 50.051,41.462 48.295,41.462 48.295,41.29 48.467,41.284 48.467,41.132 49.885,41.117 49.885,40.939 50.421,40.939 
        50.428,40.768   "/>
    <polygon fill="#39B382" points="53.411,41.818 53.411,41.999 53.24,41.999 53.232,42.521 53.062,42.521 53.067,42.702 
        49.701,42.702 49.701,42.527 47.939,42.521 47.939,42.357 48.11,42.352 48.11,42.171 49.529,42.171 49.529,41.999 50.051,41.999 
        50.051,41.813   "/>
    <polygon fill="#39B382" points="49.536,42.873 53.062,42.88 53.062,43.061 52.89,43.061 52.883,43.59 52.705,43.59 52.705,43.768 
        49.529,43.768 49.529,43.59 47.404,43.59 47.404,43.424 47.589,43.424 47.589,43.245 49.18,43.238 49.18,43.061 49.536,43.061   "/>
    <polygon fill="#39B382" points="60.123,39.68 60.123,39.857 59.951,39.857 59.944,40.381 59.786,40.374 59.784,40.561 
        56.413,40.561 56.413,40.381 54.636,40.389 54.636,40.209 54.821,40.209 54.821,40.036 56.413,40.029 56.419,39.857 56.93,39.867 
        56.939,39.68    "/>
    <polygon fill="#39B382" points="59.599,40.754 59.599,40.932 59.43,40.932 59.43,41.475 59.252,41.475 59.252,41.643 
        56.251,41.633 56.251,41.464 54.303,41.464 54.306,41.288 54.489,41.286 54.489,41.117 55.896,41.117 55.896,40.949 56.437,40.949 
        56.437,40.754   "/>
    <polygon fill="#39B382" points="59.434,41.822 59.434,42.001 59.261,42.001 59.254,42.525 59.097,42.518 59.095,42.705 
        55.723,42.705 55.723,42.525 53.947,42.531 53.947,42.354 54.132,42.354 54.132,42.182 55.723,42.175 55.73,42.001 56.24,42.012 
        56.249,41.822   "/>
    <polygon fill="#39B382" points="58.896,42.889 58.896,43.063 58.728,43.063 58.728,43.605 58.549,43.605 58.549,43.773 
        55.549,43.766 55.549,43.598 53.601,43.598 53.604,43.419 53.787,43.418 53.787,43.249 55.194,43.249 55.194,43.081 55.735,43.081 
        55.735,42.889   "/>
    <polygon fill="#39B382" points="70.539,32.251 65.233,32.246 65.235,32.426 64.705,32.428 64.699,32.601 63.107,32.605 
        63.11,32.782 62.936,32.779 62.936,32.958 64.512,32.958 64.512,33.131 71.769,33.131 71.768,32.955 71.944,32.952 71.955,32.424 
        72.122,32.426 72.125,32.25  "/>
    <polygon fill="#39B382" points="65.051,33.311 65.053,33.488 64.35,33.483 64.349,33.665 62.58,33.664 62.581,33.841 
        62.398,33.838 62.398,34.021 64.171,34.021 64.167,34.191 71.6,34.195 71.593,34.02 71.765,34.02 71.776,33.31  "/>
    <polygon fill="#39B382" points="64.342,35.428 64.344,35.605 63.64,35.602 63.638,35.783 61.87,35.782 61.87,35.958 61.688,35.956 
        61.688,36.139 63.461,36.139 63.457,36.311 66.995,36.313 67.001,35.964 67.169,35.963 67.171,35.428   "/>
    <polygon fill="#39B382" points="63.986,36.48 63.988,36.658 63.285,36.654 63.283,36.835 61.515,36.833 61.515,37.012 
        61.333,37.01 61.333,37.193 62.947,37.191 62.936,37.391 70.534,37.366 70.528,36.852 70.698,36.852 70.695,36.48   "/>
    <polygon fill="#39B382" points="63.633,37.547 63.636,37.727 62.933,37.721 62.931,37.902 61.163,37.9 61.163,38.078 60.98,38.075 
        60.98,38.259 62.753,38.259 62.748,38.45 70.001,38.436 69.999,38.259 70.182,38.259 70.178,37.915 70.355,37.91 70.355,37.551  
        "/>
    <polygon fill="#39B382" points="63.285,38.615 63.284,38.789 62.407,38.791 62.401,38.955 60.813,38.966 60.811,39.146 
        60.635,39.146 60.636,39.322 62.227,39.318 62.22,39.508 69.648,39.493 69.65,39.322 69.825,39.32 69.825,38.793 70.001,38.79 
        70.001,38.611   "/>
    <polygon fill="#39B382" points="62.931,39.658 62.933,39.836 62.23,39.831 62.228,40.012 60.459,40.012 60.459,40.188 
        60.278,40.186 60.278,40.376 61.88,40.376 61.869,40.561 65.585,40.551 65.591,40.201 65.758,40.2 65.76,39.657     "/>
    <polygon fill="#39B382" points="62.584,40.751 62.586,40.93 61.883,40.925 61.881,41.105 60.113,41.104 60.113,41.282 
        59.931,41.279 59.931,41.471 61.533,41.471 61.522,41.654 68.948,41.621 68.946,41.439 69.118,41.439 69.114,40.907 69.292,40.907 
        69.291,40.738   "/>
    <polygon fill="#39B382" points="62.228,41.8 62.23,41.977 61.358,41.973 61.356,42.152 59.756,42.15 59.757,42.329 59.575,42.326 
        59.575,42.518 61.177,42.518 61.166,42.702 68.593,42.667 68.59,42.486 68.761,42.484 68.758,41.954 68.936,41.954 68.934,41.786    
        "/>
    <polygon fill="#39B382" points="61.875,42.852 61.871,43.034 60.986,43.029 60.985,43.212 59.412,43.211 59.412,43.387 
        59.229,43.384 59.229,43.575 60.812,43.574 60.812,43.73 68.248,43.727 68.244,43.545 68.415,43.545 68.413,43.014 68.59,43.014 
        68.59,42.846    "/>
    <polygon fill="#39B382" points="64.699,34.373 64.699,34.545 63.996,34.55 63.99,34.725 62.225,34.729 62.225,34.904 
        62.043,34.904 62.043,35.087 63.816,35.087 63.812,35.257 71.244,35.25 71.251,34.724 71.421,34.724 71.42,34.372   "/>
    <polygon fill="#39B382" points="80.103,32.285 74.818,32.272 74.818,32.455 74.11,32.455 74.11,32.634 72.711,32.634 
        72.711,32.785 72.518,32.785 72.518,32.965 74.441,32.965 74.437,33.13 81.341,33.146 81.341,32.993 81.148,32.992 81.148,32.814 
        80.803,32.805 80.805,32.641 80.473,32.634 80.473,32.469 80.106,32.464   "/>
    <polygon fill="#39B382" points="81.682,33.333 74.45,33.333 74.45,33.506 73.748,33.506 73.735,33.689 72.342,33.689 
        72.342,33.863 72.158,33.863 72.158,34.024 74.082,34.024 74.082,34.208 81.859,34.219 81.863,33.689 81.68,33.688  "/>
    <polygon fill="#39B382" points="74.107,34.41 82.059,34.396 82.059,35.273 73.561,35.287 73.561,35.114 71.624,35.114 
        71.624,34.928 71.982,34.928 71.982,34.742 73.4,34.742 73.402,34.583 74.107,34.583   "/>
    <polygon fill="#39B382" points="76.564,35.454 76.564,35.633 76.396,35.633 76.386,36.15 76.574,36.15 76.574,36.33 73.39,36.33 
        73.39,36.15 71.455,36.15 71.455,35.977 71.624,35.975 71.625,35.793 73.043,35.803 73.043,35.633 73.569,35.633 73.578,35.454  
        "/>
    <polygon fill="#39B382" points="82.049,35.444 78.521,35.453 78.521,35.798 77.109,35.798 77.109,35.986 76.929,35.986 
        76.929,36.141 78.505,36.15 78.505,36.34 82.049,36.34    "/>
    <polygon fill="#39B382" points="73.202,36.537 81.846,36.523 81.846,36.699 81.695,36.699 81.695,37.05 81.508,37.05 81.52,37.414 
        73.054,37.387 73.054,37.211 71.086,37.211 71.089,37.039 71.274,37.037 71.274,36.875 72.676,36.875 72.676,36.713 73.202,36.713 
            "/>
    <polygon fill="#39B382" points="81.348,37.585 72.866,37.585 72.866,37.764 72.333,37.764 72.333,37.93 70.924,37.93 
        70.924,38.105 70.735,38.105 70.735,38.273 72.664,38.284 72.664,38.45 80.637,38.45 80.648,38.284 80.813,38.284 80.813,38.096 
        81.168,38.096 81.168,37.752 81.348,37.752   "/>
    <polygon fill="#39B382" points="72.511,38.648 80.267,38.646 80.267,38.811 80.101,38.811 80.101,39.002 79.744,39.002 
        79.744,39.51 72.331,39.525 72.331,39.348 70.396,39.348 70.396,39.182 70.572,39.178 70.574,39.008 71.988,39.002 71.988,38.824 
        72.509,38.824   "/>
    <polygon fill="#39B382" points="79.754,39.876 79.754,39.697 76.765,39.697 76.765,39.876 76.578,39.876 76.578,40.044 
        75.521,40.061 75.522,40.23 75.333,40.23 75.333,40.389 76.744,40.398 76.748,40.588 80.099,40.576 80.099,40.23 79.937,40.229 
        79.942,39.887   "/>
    <polygon fill="#39B382" points="80.633,41.288 80.457,41.288 80.457,40.938 80.293,40.938 80.293,40.762 77.103,40.762 
        77.103,40.938 76.934,40.938 76.934,41.105 75.514,41.105 75.514,41.294 75.344,41.294 75.344,41.459 77.271,41.465 77.271,41.641 
        80.633,41.641   "/>
    <polygon fill="#39B382" points="80.805,41.999 80.803,41.822 77.637,41.822 77.637,41.999 77.278,41.999 77.278,42.175 
        75.865,42.175 75.865,42.346 75.684,42.346 75.684,42.525 77.625,42.525 77.625,42.708 81.172,42.708 81.172,42.352 80.986,42.35 
        80.99,41.999    "/>
    <polygon fill="#39B382" points="75.331,39.697 75.331,40.049 75.155,40.049 75.155,40.584 71.972,40.584 71.972,40.406 
        70.037,40.406 70.037,40.23 70.212,40.23 70.212,40.049 71.628,40.049 71.628,39.873 72.154,39.873 72.155,39.688   "/>
    <polygon fill="#39B382" points="74.968,40.757 74.968,41.284 74.79,41.284 74.792,41.643 71.609,41.643 71.609,41.467 
        69.674,41.467 69.674,41.292 69.85,41.292 69.85,41.107 71.266,41.107 71.266,40.934 71.792,40.934 71.792,40.745   "/>
    <polygon fill="#39B382" points="74.623,41.82 74.623,42.348 74.446,42.348 74.448,42.707 71.268,42.707 71.265,42.531 
        69.152,42.531 69.152,42.348 69.328,42.348 69.328,42.173 70.745,42.173 70.754,41.997 71.448,41.997 71.449,41.811     "/>
    <polygon fill="#39B382" points="74.274,42.877 74.274,43.232 74.097,43.232 74.1,43.764 70.747,43.777 70.747,43.598 
        68.804,43.587 68.804,43.402 68.979,43.402 68.979,43.229 70.396,43.229 70.405,43.053 71.099,43.053 71.1,42.865   "/>
    <polygon fill="#39B382" points="78.166,42.875 81.339,42.884 81.339,43.059 81.514,43.059 81.514,43.402 81.684,43.402 
        81.684,43.754 77.982,43.745 77.982,43.586 76.218,43.586 76.218,43.396 76.394,43.396 76.394,43.227 77.631,43.227 77.631,43.059 
        78.166,43.059   "/>
    <path fill="none" stroke="#005CAA" stroke-width="0.4252" stroke-miterlimit="22.9256" d="M83.389,29.195
        c1.12,0,2.034-0.915,2.034-2.034c0-1.121-0.914-2.034-2.034-2.034c-1.121,0-2.033,0.913-2.033,2.034
        C81.355,28.281,82.268,29.195,83.389,29.195z"/>
    <path fill="#005CAA" stroke="#005CAA" stroke-width="0.216" stroke-miterlimit="22.9256" d="M82.236,28.518v-2.714h1.203
        c0.242,0,0.428,0.025,0.553,0.074c0.127,0.048,0.227,0.134,0.303,0.258c0.075,0.124,0.111,0.261,0.111,0.41
        c0,0.192-0.061,0.354-0.186,0.486c-0.125,0.131-0.318,0.215-0.58,0.251c0.098,0.046,0.168,0.091,0.219,0.135
        c0.104,0.096,0.203,0.217,0.299,0.361l0.472,0.739h-0.452l-0.359-0.565c-0.104-0.162-0.189-0.287-0.258-0.373
        c-0.068-0.087-0.131-0.147-0.184-0.182s-0.107-0.058-0.163-0.072c-0.04-0.009-0.108-0.014-0.2-0.014h-0.416v1.206H82.236
        L82.236,28.518z M82.598,27.002h0.771c0.163,0,0.292-0.017,0.385-0.051c0.094-0.035,0.163-0.089,0.21-0.163
        c0.05-0.075,0.073-0.156,0.073-0.243c0-0.128-0.046-0.235-0.141-0.317c-0.092-0.083-0.238-0.124-0.44-0.124h-0.858V27.002z"/>
</g>
<g enable-background="new    ">
    <path fill="#404040" d="M97.045,37.668v-1.641h5.039v1.582c-0.196,2.852-1.915,4.922-5.156,6.211V42.18
        c1.641-1.25,2.558-2.754,2.754-4.512H97.045z M102.553,42.063v-7.032h-4.336v-1.758h6.797v8.907
        c0.038,1.561-0.665,2.305-2.109,2.227h-1.875v-1.641h0.82C102.318,42.766,102.553,42.531,102.553,42.063z M106.771,33.742
        c-1.681-0.624-3.574-1.016-5.684-1.172v-1.758c2.147,0.039,4.043,0.293,5.684,0.762V33.742z M107.885,37.668
        c0.194,1.953,1.034,3.457,2.52,4.512v1.641c-3.047-1.289-4.708-3.34-4.98-6.152v-1.641h2.168c0.82,0.039,1.679-0.117,2.578-0.469
        v1.816c-0.665,0.234-1.368,0.332-2.109,0.293H107.885z"/>
    <path fill="#404040" d="M111.986,36.789v-1.641h3.691v5.567c0,1.211,0.586,1.816,1.758,1.816h7.969v1.641h-8.379
        c-1.055,0-1.816-0.314-2.285-0.938c-0.586,0.623-1.505,1.016-2.754,1.172V43c0.82-0.234,1.21-0.742,1.172-1.523v-4.688H111.986z
         M114.799,31.222c0.507,0.977,0.839,1.954,0.996,2.93h-2.344c-0.196-1.016-0.489-1.992-0.879-2.93H114.799z M116.381,34.621v-1.699
        h2.93v-1.875h2.637v1.875h2.988v1.699h-2.988c0.155,2.657,1.23,4.493,3.223,5.508v1.641c-2.227-0.625-3.712-1.66-4.453-3.105
        c-1.055,1.602-2.618,2.637-4.688,3.105v-1.641c2.109-0.82,3.202-2.656,3.281-5.508H116.381z"/>
    <path fill="#404040" d="M131.908,30.929h2.578v1.23h4.688v6.153c0.077,1.875-0.802,2.773-2.637,2.695h-2.051v0.527
        c-0.04,0.781,0.312,1.152,1.055,1.113h1.934c0.507,0,0.762-0.254,0.762-0.762v-0.527h1.992v0.645
        c0.038,1.484-0.665,2.205-2.109,2.168h-3.809c-1.641,0.037-2.442-0.801-2.402-2.52v-0.645h-4.57V32.16h4.57V30.929z M129.74,33.8
        v1.875h2.168V33.8H129.74z M129.74,37.316v2.051h2.168v-2.051H129.74z M136.654,33.8h-2.168v1.875h2.168V33.8z M135.717,39.367
        c0.663,0.039,0.976-0.254,0.938-0.879v-1.172h-2.168v2.051H135.717z"/>
    <path fill="#404040" d="M141.811,38.547v-1.699h5.742v-1.465c0.938-0.469,1.934-1.172,2.988-2.109h-7.734v-1.758h11.777v1.699
        c-1.406,1.251-2.813,2.168-4.219,2.754v0.879h5.098v1.699h-5.098v3.281c0,1.602-0.82,2.402-2.461,2.402h-2.344v-1.582h1.23
        c0.507,0,0.762-0.273,0.762-0.82v-3.281H141.811z"/>
</g>
</svg>
